<svg width="80" height="80" viewBox="0 0 80 80" fill="none" xmlns="http://www.w3.org/2000/svg">
<g clip-path="url(#clip0)">
<path d="M4.668 28.4513L-1.57267e-05 24.4433L7.14558 22.0572C10.2463 21.0231 13.6425 21.3887 16.4534 23.0588L15.1843 30.6878C11.5271 31.7743 7.56906 30.9327 4.668 28.4513Z" fill="#305C1E"/>
<path d="M17.2432 20.558C10.9542 17.0784 7.04986 10.449 7.05123 3.25114V0.425537C15.9569 0.428296 23.7573 6.4065 26.0896 15.0172" fill="#305C1E"/>
<path d="M26.7947 59.7634C26.7947 70.6871 17.9551 79.5426 7.05117 79.5426V76.717C7.05462 66.8005 14.393 58.4216 24.2069 57.1268" fill="#305C1E"/>
<path d="M21.9705 52.9229L17.4009 56.2921C14.4482 58.4692 10.6237 59.0728 7.14562 57.9111L3.36653e-05 55.525L4.66804 51.517C7.86589 48.77 12.3253 48.0374 16.2317 49.6164L21.3569 51.6867" fill="#305C1E"/>
<path d="M19.8605 12.5897L11.8403 3.42093C11.3266 2.83388 10.4363 2.77524 9.85029 3.28986C9.2643 3.8038 9.20576 4.69646 9.71946 5.28283L17.7396 14.4516C18.2526 15.0386 19.1436 15.0973 19.7296 14.5833C20.3149 14.0687 20.3735 13.1767 19.8605 12.5897Z" fill="#294F1A"/>
<path d="M18.9737 66.1141C18.387 65.6002 17.4953 65.6595 16.9823 66.2473L8.96217 75.4284C8.44848 76.0155 8.50839 76.9088 9.09438 77.4228C9.68107 77.9374 10.5728 77.8781 11.0858 77.2903L19.1059 68.1092C19.6196 67.5214 19.5604 66.6287 18.9737 66.1141V66.1141Z" fill="#294F1A"/>
<path d="M14.3285 35.7995L16.5933 22.1895C16.802 20.9333 17.5636 19.8378 18.6674 19.2059L25.5341 15.2759C26.3508 14.8082 27.3004 14.6267 28.232 14.7599L36.6667 15.9664L42.3077 14.5536L47.5975 10.3152C48.6276 9.48876 50.093 9.48876 51.1231 10.3152L55.495 13.8217C56.0789 14.2901 56.8247 14.5074 57.5677 14.4253L65.9672 13.4899C66.7653 13.4002 67.5627 13.6554 68.1618 14.1908C68.7602 14.7268 69.1024 15.4932 69.1024 16.2968V17.3792L76.0958 26.3858C77.8421 28.634 78.0783 31.7101 76.6963 34.2004L76.3933 34.7481L79.0726 39.3949C79.7881 40.2904 80.1103 41.4383 79.9664 42.5765C79.8225 43.7141 79.2241 44.7447 78.3083 45.4332L70.5126 51.2865C70.5126 51.2865 74.7434 64.0017 60.6409 69.6529C46.5384 75.3042 40.8974 65.4145 40.8974 65.4145L40.9215 65.3945C40.8141 65.3945 40.7053 65.3945 40.5999 65.3724L32.4201 64.2011C31.5125 64.0728 30.671 63.6527 30.0231 63.0028L24.4537 57.4241C24.1328 57.1019 23.8649 56.7301 23.6611 56.3231L14.7121 38.3919C14.3148 37.5896 14.1805 36.6825 14.3285 35.7995Z" fill="#BD0000"/>
<path d="M34.7667 23.6548L39.5022 20.8098C40.1598 20.4139 40.9117 20.2055 41.6788 20.2049H45.369C46.4921 20.2014 47.5698 20.6484 48.3617 21.4466L50.3559 23.4444C50.7849 23.8741 50.8916 24.5309 50.621 25.0745L49.9372 26.4438L51.7083 27.0343C52.5993 27.3344 53.3664 27.9215 53.8897 28.7044L54.694 29.9124C55.9376 31.7853 55.5045 34.306 53.7066 35.654L51.209 37.5303C50.2464 38.2533 49.0214 38.532 47.8411 38.2961L36.8848 36.1003C35.1647 35.7485 33.8371 34.3722 33.5458 32.6373L32.7697 27.9753C32.4826 26.2603 33.2759 24.5447 34.7667 23.6548ZM35.5524 27.522L36.3264 32.184C36.4255 32.7621 36.8683 33.2202 37.4419 33.3368L48.3982 35.5325C48.7934 35.6112 49.2031 35.5187 49.5268 35.278L52.0243 33.4002C52.6234 32.9511 52.768 32.1102 52.3528 31.4859L51.5485 30.2794C51.3743 30.0186 51.1181 29.8227 50.8213 29.7227L49.2954 29.2129C48.9525 31.3238 46.6409 32.9201 43.7178 32.9201C40.5544 32.9201 38.0768 31.0582 38.0768 28.6817C38.0768 26.3052 40.5544 24.4433 43.7178 24.4433C44.9779 24.4288 46.2174 24.7627 47.2999 25.4097L47.6428 24.7213L46.373 23.4499C46.1079 23.1815 45.7464 23.0305 45.369 23.0305H41.6788C41.4227 23.0305 41.172 23.1001 40.9537 23.2326L36.2182 26.0782C35.7211 26.3762 35.4573 26.9495 35.5524 27.522ZM46.5383 28.6817C46.5383 28.105 45.44 27.2689 43.7178 27.2689C41.9956 27.2689 40.8973 28.105 40.8973 28.6817C40.8973 29.2584 41.9956 30.0945 43.7178 30.0945C45.44 30.0945 46.5383 29.2584 46.5383 28.6817Z" fill="#A30000"/>
<path d="M35.835 41.8205C37.7176 41.8219 39.4901 40.9313 40.6152 39.4192C40.6152 39.4192 36.7019 39.0542 35.6133 38.9839C34.5418 38.9197 33.5785 38.3071 33.0648 37.362L33.0324 37.3027C31.1009 33.8121 29.9165 29.9558 29.5564 25.9803C29.4634 24.969 29.3814 24.2246 29.3814 24.2246C28.3919 26.4673 27.5443 28.77 26.8433 31.1189C26.74 31.479 26.7841 31.866 26.9658 32.1937L30.603 38.7341C31.5843 40.5119 33.4008 41.6674 35.4246 41.8026C35.5595 41.8122 35.698 41.8205 35.835 41.8205V41.8205Z" fill="#A30000"/>
<path d="M33.11 45.1649C36.8588 49.9103 43.4693 51.2728 48.7832 48.3947C53.6888 45.7257 58.301 42.5469 62.5435 38.9121C70.4885 32.0895 69.6126 27.4683 69.2394 25.4905C69.1719 25.1842 69.1265 24.8744 69.1024 24.5619C68.1493 22.9436 66.9711 21.4687 65.6036 20.1821C65.1112 19.6516 64.2994 19.5757 63.7182 20.0069L61.6621 21.5515C62.8822 22.6386 63.5447 24.2218 63.4614 25.8561C63.4614 31.9088 59.1335 37.7601 58.9483 38.0063C58.8767 38.1015 58.794 38.1871 58.7018 38.2623L51.6505 43.9135C51.5727 43.9756 51.4887 44.0294 51.3992 44.0742C51.1568 44.1942 45.4105 47.0481 40.8974 47.0481C35.6275 47.0481 33.9577 40.6015 33.8881 40.3277C33.8881 40.3277 37.8538 44.2225 40.8974 44.2225C44.4058 44.2225 49.173 42.0116 50.0103 41.6073L56.7895 36.1693C57.3976 35.3118 60.6409 30.5001 60.6409 25.8561C60.7145 25.0352 60.4012 24.226 59.7946 23.6693C58.909 23.0829 57.8569 22.8035 56.7978 22.8725C57.4671 24.2412 57.8169 25.7443 57.8204 27.2689C56.3068 27.2558 54.9689 26.2803 54.491 24.842C53.5063 22.3441 52.2737 19.9524 50.8125 17.7014C52.3632 18.1891 53.7721 19.0487 54.9165 20.2049C56.1836 19.9952 57.4768 20.0027 58.741 20.2276L62.0284 17.7566C63.7561 16.4576 66.1834 16.6715 67.6584 18.2526C71.593 22.491 71.9228 23.672 71.9228 24.4419C71.9414 24.6192 71.971 24.7951 72.0103 24.9689C72.4331 27.2137 73.5617 33.1774 64.3793 41.0637C56.2166 48.0726 45.3196 54.1632 41.2754 54.1632C40.9683 54.1729 40.6619 54.1253 40.3727 54.0218C32.5261 50.863 32.4359 44.4923 32.4359 44.2225C32.6445 44.5481 32.869 44.8627 33.11 45.1649V45.1649Z" fill="#A30000"/>
<path d="M29.7848 49.2943C29.7848 49.2943 26.6242 43.2278 26.5567 42.8864L25.3847 37.0537C25.3482 36.8806 25.3007 36.7102 25.2435 36.5425L22.9333 29.5999C22.7901 29.1702 22.8603 28.6969 23.124 28.3286C23.124 28.3286 29.2023 20.2049 29.6561 20.2049L33.8462 17.3793H29.6561C28.2906 17.3814 27.0091 18.0416 26.2138 19.1536L20.8406 26.6895C20.0584 27.7953 19.8484 29.2088 20.2767 30.4947L22.5807 37.4414C22.5993 37.4959 22.6145 37.5525 22.6248 37.6091L23.7913 43.4445C23.9951 44.4661 24.568 45.3774 25.3998 46.0031L29.7848 49.2943Z" fill="#A30000"/>
<path d="M46.5384 59.7634C47.1292 59.7634 48.9244 59.7634 64.9859 54.5827C69.0349 53.3747 71.5717 49.3578 70.9271 45.1745C70.6744 43.8597 70.8913 42.4979 71.5393 41.3266L74.3206 36.2997L71.246 38.4368C69.0707 39.8807 67.8464 42.3903 68.046 44.9966C68.0646 45.1704 68.0881 45.3429 68.1177 45.5153C68.5756 48.2947 66.9326 50.9899 64.2553 51.8516C56.9341 54.3585 49.4394 56.3252 41.8325 57.7373C43.1691 58.8604 44.8052 59.5647 46.5384 59.7634V59.7634Z" fill="#A30000"/>
</g>
<defs>
<clipPath id="clip0">
<rect width="80" height="80" fill="white" transform="matrix(-1 0 0 1 80 0)"/>
</clipPath>
</defs>
</svg>
