<svg width="351" height="152" viewBox="0 0 351 152" fill="none" xmlns="http://www.w3.org/2000/svg">
<path d="M99.4 71.568L99.688 86.064C99.688 88.048 99.24 89.392 98.344 90.096C97.448 90.8 96.616 91.152 95.848 91.152C95.08 91.152 94.344 91.056 93.64 90.864C92.808 84.016 92.392 77.328 92.392 70.8C92.392 64.272 92.584 56.88 92.968 48.624C93.416 40.368 93.672 33.84 93.736 29.04C93.736 23.92 100.584 21.36 114.28 21.36C121.512 21.36 128.328 22.864 134.728 25.872C138.056 27.408 140.776 29.584 142.888 32.4C145 35.152 146.056 38.256 146.056 41.712C146.056 45.104 145.288 48.176 143.752 50.928C142.216 53.68 140.264 55.984 137.896 57.84C135.528 59.632 132.808 61.2 129.736 62.544C124.68 64.848 119.048 66.384 112.84 67.152C115.912 68.88 120.904 73.04 127.816 79.632C129.864 81.616 132.456 83.408 135.592 85.008C138.728 86.544 141.96 87.312 145.288 87.312C145.608 87.312 146.28 87.248 147.304 87.12C148.328 86.928 149.192 86.8 149.896 86.736C150.6 86.672 151.24 86.832 151.816 87.216C152.456 87.536 152.776 88.144 152.776 89.04C152.776 91.216 150.056 92.304 144.616 92.304C138.28 92.304 131.976 89.872 125.704 85.008C122.952 82.96 120.264 80.848 117.64 78.672C111.176 73.232 105.128 69.808 99.496 68.4C99.432 68.976 99.4 70.032 99.4 71.568ZM138.856 42.864C138.856 37.488 136.424 33.456 131.56 30.768C126.76 28.016 120.648 26.64 113.224 26.64C108.552 26.64 104.2 27.152 100.168 28.176C100.168 33.232 100.008 38.864 99.688 45.072C99.368 51.216 99.208 55.44 99.208 57.744C99.208 60.048 99.24 61.744 99.304 62.832C108.776 62.128 116.104 61.008 121.288 59.472C126.856 57.872 131.016 55.888 133.768 53.52C137.16 50.576 138.856 47.024 138.856 42.864ZM214.155 31.92C217.483 34.48 220.139 37.84 222.123 42C224.171 46.096 225.195 50.896 225.195 56.4C225.195 61.904 224.075 67.056 221.835 71.856C219.595 76.656 216.683 80.464 213.099 83.28C205.739 89.04 197.579 91.92 188.619 91.92C179.723 91.92 172.107 89.04 165.771 83.28C159.435 77.456 156.267 69.52 156.267 59.472C156.267 53.712 157.195 48.528 159.051 43.92C160.971 39.312 163.531 35.6 166.731 32.784C173.387 26.896 181.259 23.952 190.347 23.952C199.307 23.952 207.243 26.608 214.155 31.92ZM162.603 59.664C162.603 67.92 164.939 74.512 169.611 79.44C174.347 84.368 180.619 86.832 188.427 86.832C197.451 86.832 204.683 84.08 210.123 78.576C215.627 73.008 218.379 66 218.379 57.552C218.379 49.04 215.627 42.256 210.123 37.2C204.619 32.144 197.931 29.616 190.059 29.616C182.187 29.616 175.627 32.208 170.379 37.392C165.195 42.512 162.603 49.936 162.603 59.664ZM243.284 25.392C245.716 23.792 248.372 22.608 251.252 21.84C254.132 21.072 256.98 20.688 259.796 20.688C262.612 20.688 265.236 20.88 267.668 21.264C270.164 21.584 272.692 22.16 275.252 22.992C277.876 23.824 280.02 25.104 281.684 26.832C283.348 28.56 284.276 30.608 284.468 32.976C284.532 33.936 284.148 34.672 283.316 35.184C282.548 35.632 281.652 35.856 280.628 35.856C279.668 35.856 278.932 35.632 278.42 35.184C277.972 34.672 277.524 33.936 277.076 32.976C274.644 28.048 269.332 25.584 261.14 25.584C255.572 25.584 250.996 26.768 247.412 29.136C243.892 31.504 242.132 34.96 242.132 39.504C242.132 42.064 242.932 44.272 244.532 46.128C246.132 47.92 248.212 49.328 250.772 50.352C253.396 51.376 256.244 52.304 259.316 53.136C262.452 53.968 265.556 54.896 268.628 55.92C271.764 56.944 274.612 58.16 277.172 59.568C279.796 60.976 281.908 62.96 283.508 65.52C285.108 68.016 285.908 71.024 285.908 74.544C285.908 79.664 283.38 84.016 278.324 87.6C273.332 91.184 267.028 92.976 259.412 92.976C253.524 92.976 247.764 91.728 242.132 89.232C236.5 86.736 233.684 84.176 233.684 81.552C233.684 80.848 234.1 80.208 234.932 79.632C235.764 78.992 236.564 78.672 237.332 78.672C238.164 78.672 238.932 78.928 239.636 79.44C240.34 79.888 241.14 80.528 242.036 81.36C242.932 82.192 243.732 82.832 244.436 83.28C249.3 86.352 254.74 87.888 260.756 87.888C264.98 87.888 269.108 86.608 273.14 84.048C277.172 81.424 279.188 77.936 279.188 73.584C279.188 70.64 278.1 68.208 275.924 66.288C273.748 64.304 271.028 62.896 267.764 62.064C264.5 61.168 260.948 60.176 257.108 59.088C253.332 58 249.812 56.88 246.548 55.728C243.284 54.576 240.564 52.72 238.388 50.16C236.212 47.6 235.124 44.56 235.124 41.04C235.124 37.456 235.86 34.352 237.332 31.728C238.868 29.04 240.852 26.928 243.284 25.392ZM321.999 21.072L336.783 21.36C341.711 21.36 345.103 21.936 346.959 23.088C346.767 24.88 346.095 26.064 344.943 26.64C343.791 27.216 342.127 27.504 339.951 27.504L319.215 27.216C313.967 27.216 309.551 27.376 305.967 27.696C305.263 31.28 304.911 36.432 304.911 43.152L305.007 47.472C305.007 49.328 304.975 51.312 304.911 53.424C307.855 53.936 311.695 54.192 316.431 54.192L327.855 54.096C332.207 54.096 334.703 54.32 335.343 54.768C335.983 55.216 336.303 55.696 336.303 56.208C336.303 58.64 333.199 59.856 326.991 59.856L305.199 59.184C305.135 60.72 305.071 63.344 305.007 67.056C304.879 74.8 304.591 80.656 304.143 84.624C308.239 84.88 311.183 85.008 312.975 85.008C314.767 85.008 316.623 84.976 318.543 84.912C320.463 84.848 324.047 84.656 329.295 84.336C334.543 84.016 338.447 83.856 341.007 83.856C343.631 83.856 345.423 84.048 346.383 84.432C347.343 84.752 347.823 85.52 347.823 86.736C347.823 87.504 347.599 88.048 347.151 88.368C346.767 88.624 346.415 88.848 346.095 89.04C345.775 89.168 345.359 89.296 344.847 89.424C344.399 89.488 343.983 89.552 343.599 89.616C343.279 89.68 342.799 89.744 342.159 89.808C341.583 89.808 341.103 89.84 340.719 89.904C340.399 89.904 339.951 89.904 339.375 89.904H338.031C325.487 90.48 317.455 90.768 313.935 90.768C303.375 90.768 298.095 89.296 298.095 86.352C297.967 80.4 297.903 74.736 297.903 69.36C297.903 51.632 298.479 36.88 299.631 25.104C300.975 22.992 304.879 21.776 311.343 21.456C315.375 21.2 318.927 21.072 321.999 21.072Z" fill="black"/>
<g clip-path="url(#clip0)">
<path d="M4.668 42.4513L-1.57267e-05 38.4433L7.14558 36.0572C10.2463 35.0231 13.6425 35.3887 16.4534 37.0588L15.1843 44.6878C11.5271 45.7743 7.56906 44.9327 4.668 42.4513Z" fill="#305C1E"/>
<path d="M17.2432 34.558C10.9542 31.0784 7.04986 24.449 7.05123 17.2512V14.4256C15.9569 14.4283 23.7573 20.4065 26.0896 29.0172" fill="#305C1E"/>
<path d="M26.7947 73.7634C26.7947 84.6871 17.9551 93.5426 7.05117 93.5426V90.717C7.05462 80.8005 14.393 72.4216 24.2069 71.1268" fill="#305C1E"/>
<path d="M21.9705 66.9229L17.4009 70.2921C14.4482 72.4693 10.6237 73.0729 7.14562 71.9112L3.36653e-05 69.525L4.66804 65.517C7.86589 62.77 12.3253 62.0374 16.2317 63.6165L21.3569 65.6867" fill="#305C1E"/>
<path d="M19.8605 26.5897L11.8403 17.421C11.3266 16.8339 10.4363 16.7753 9.85029 17.2899C9.2643 17.8038 9.20576 18.6965 9.71946 19.2829L17.7396 28.4516C18.2526 29.0387 19.1436 29.0973 19.7296 28.5834C20.3149 28.0687 20.3735 27.1768 19.8605 26.5897Z" fill="#294F1A"/>
<path d="M18.9737 80.1141C18.387 79.6001 17.4953 79.6595 16.9823 80.2472L8.96217 89.4284C8.44848 90.0155 8.50839 90.9088 9.09438 91.4227C9.68107 91.9374 10.5728 91.878 11.0858 91.2903L19.1059 82.1091C19.6196 81.5214 19.5604 80.6287 18.9737 80.1141V80.1141Z" fill="#294F1A"/>
<path d="M14.3285 49.7995L16.5933 36.1895C16.802 34.9333 17.5636 33.8379 18.6674 33.206L25.5341 29.2759C26.3508 28.8082 27.3004 28.6268 28.232 28.7599L36.6667 29.9664L42.3077 28.5536L47.5975 24.3152C48.6276 23.4888 50.093 23.4888 51.1231 24.3152L55.495 27.8217C56.0789 28.2901 56.8247 28.5074 57.5677 28.4253L65.9672 27.4899C66.7653 27.4002 67.5627 27.6555 68.1618 28.1908C68.7602 28.7268 69.1024 29.4932 69.1024 30.2969V31.3792L76.0958 40.3859C77.8421 42.6341 78.0783 45.7101 76.6963 48.2004L76.3933 48.7482L79.0726 53.395C79.7881 54.2904 80.1103 55.4383 79.9664 56.5765C79.8225 57.7141 79.2241 58.7447 78.3083 59.4332L70.5126 65.2865C70.5126 65.2865 74.7434 78.0018 60.6409 83.653C46.5384 89.3042 40.8974 79.4146 40.8974 79.4146L40.9215 79.3946C40.8141 79.3946 40.7053 79.3946 40.5999 79.3725L32.4201 78.2011C31.5125 78.0728 30.671 77.6527 30.0231 77.0029L24.4537 71.4241C24.1328 71.1019 23.8649 70.7301 23.6611 70.3231L14.7121 52.3919C14.3148 51.5896 14.1805 50.6825 14.3285 49.7995Z" fill="#BD0000"/>
<path d="M34.7667 37.6548L39.5022 34.8098C40.1598 34.4139 40.9117 34.2055 41.6788 34.2049H45.369C46.4921 34.2014 47.5698 34.6484 48.3617 35.4466L50.3559 37.4444C50.7849 37.8741 50.8916 38.5309 50.621 39.0745L49.9372 40.4438L51.7083 41.0343C52.5993 41.3344 53.3664 41.9215 53.8897 42.7044L54.694 43.9124C55.9376 45.7853 55.5045 48.306 53.7066 49.654L51.209 51.5303C50.2464 52.2533 49.0214 52.532 47.8411 52.2961L36.8848 50.1003C35.1647 49.7485 33.8371 48.3722 33.5458 46.6373L32.7697 41.9753C32.4826 40.2603 33.2759 38.5447 34.7667 37.6548ZM35.5524 41.522L36.3264 46.184C36.4255 46.7621 36.8683 47.2202 37.4419 47.3368L48.3982 49.5325C48.7934 49.6112 49.2031 49.5187 49.5268 49.278L52.0243 47.4002C52.6234 46.9511 52.768 46.1102 52.3528 45.4859L51.5485 44.2794C51.3743 44.0186 51.1181 43.8227 50.8213 43.7227L49.2954 43.2129C48.9525 45.3238 46.6409 46.9201 43.7178 46.9201C40.5544 46.9201 38.0768 45.0582 38.0768 42.6817C38.0768 40.3052 40.5544 38.4433 43.7178 38.4433C44.9779 38.4288 46.2174 38.7627 47.2999 39.4097L47.6428 38.7213L46.373 37.4499C46.1079 37.1815 45.7464 37.0305 45.369 37.0305H41.6788C41.4227 37.0305 41.172 37.1001 40.9537 37.2326L36.2182 40.0782C35.7211 40.3762 35.4573 40.9495 35.5524 41.522ZM46.5383 42.6817C46.5383 42.105 45.44 41.2689 43.7178 41.2689C41.9956 41.2689 40.8973 42.105 40.8973 42.6817C40.8973 43.2584 41.9956 44.0945 43.7178 44.0945C45.44 44.0945 46.5383 43.2584 46.5383 42.6817Z" fill="#A30000"/>
<path d="M35.835 55.8205C37.7176 55.8219 39.4901 54.9313 40.6152 53.4191C40.6152 53.4191 36.7019 53.0542 35.6133 52.9838C34.5418 52.9197 33.5785 52.3071 33.0648 51.362L33.0324 51.3027C31.1009 47.8121 29.9165 43.9558 29.5564 39.9802C29.4634 38.9689 29.3814 38.2246 29.3814 38.2246C28.3919 40.4673 27.5443 42.77 26.8433 45.1189C26.74 45.479 26.7841 45.866 26.9658 46.1937L30.603 52.7341C31.5843 54.5118 33.4008 55.6673 35.4246 55.8025C35.5595 55.8122 35.698 55.8205 35.835 55.8205V55.8205Z" fill="#A30000"/>
<path d="M33.11 59.1649C36.8588 63.9103 43.4693 65.2728 48.7832 62.3947C53.6888 59.7257 58.301 56.5469 62.5435 52.9121C70.4885 46.0895 69.6126 41.4683 69.2394 39.4905C69.1719 39.1842 69.1265 38.8744 69.1024 38.5619C68.1493 36.9436 66.9711 35.4687 65.6036 34.1821C65.1112 33.6516 64.2994 33.5757 63.7182 34.0069L61.6621 35.5515C62.8822 36.6386 63.5447 38.2218 63.4614 39.8561C63.4614 45.9088 59.1335 51.7601 58.9483 52.0063C58.8767 52.1015 58.794 52.1871 58.7018 52.2623L51.6505 57.9135C51.5727 57.9756 51.4887 58.0294 51.3992 58.0742C51.1568 58.1942 45.4105 61.0481 40.8974 61.0481C35.6275 61.0481 33.9577 54.6015 33.8881 54.3277C33.8881 54.3277 37.8538 58.2225 40.8974 58.2225C44.4058 58.2225 49.173 56.0116 50.0103 55.6073L56.7895 50.1693C57.3976 49.3118 60.6409 44.5001 60.6409 39.8561C60.7145 39.0352 60.4012 38.226 59.7946 37.6693C58.909 37.0829 57.8569 36.8035 56.7978 36.8725C57.4671 38.2412 57.8169 39.7443 57.8204 41.2689C56.3068 41.2558 54.9689 40.2803 54.491 38.842C53.5063 36.3441 52.2737 33.9524 50.8125 31.7014C52.3632 32.1891 53.7721 33.0487 54.9165 34.2049C56.1836 33.9952 57.4768 34.0027 58.741 34.2276L62.0284 31.7566C63.7561 30.4576 66.1834 30.6715 67.6584 32.2526C71.593 36.491 71.9228 37.672 71.9228 38.4419C71.9414 38.6192 71.971 38.7951 72.0103 38.9689C72.4331 41.2137 73.5617 47.1774 64.3793 55.0637C56.2166 62.0726 45.3196 68.1632 41.2754 68.1632C40.9683 68.1729 40.6619 68.1253 40.3727 68.0218C32.5261 64.863 32.4359 58.4923 32.4359 58.2225C32.6445 58.5481 32.869 58.8627 33.11 59.1649V59.1649Z" fill="#A30000"/>
<path d="M29.7848 63.2943C29.7848 63.2943 26.6242 57.2278 26.5567 56.8864L25.3847 51.0537C25.3482 50.8806 25.3007 50.7102 25.2435 50.5425L22.9333 43.5999C22.7901 43.1702 22.8603 42.6969 23.124 42.3286C23.124 42.3286 29.2023 34.2049 29.6561 34.2049L33.8462 31.3793H29.6561C28.2906 31.3814 27.0091 32.0416 26.2138 33.1536L20.8406 40.6895C20.0584 41.7953 19.8484 43.2088 20.2767 44.4947L22.5807 51.4414C22.5993 51.4959 22.6145 51.5525 22.6248 51.6091L23.7913 57.4445C23.9951 58.4661 24.568 59.3774 25.3998 60.0031L29.7848 63.2943Z" fill="#A30000"/>
<path d="M46.5384 73.7634C47.1292 73.7634 48.9244 73.7634 64.9859 68.5827C69.0349 67.3747 71.5717 63.3578 70.9271 59.1745C70.6744 57.8597 70.8913 56.4979 71.5393 55.3266L74.3206 50.2997L71.246 52.4368C69.0707 53.8807 67.8464 56.3903 68.046 58.9966C68.0646 59.1704 68.0881 59.3429 68.1177 59.5153C68.5756 62.2947 66.9326 64.9899 64.2553 65.8516C56.9341 68.3585 49.4394 70.3252 41.8325 71.7373C43.1691 72.8604 44.8052 73.5647 46.5384 73.7634V73.7634Z" fill="#A30000"/>
</g>
<path d="M252.504 138.216L249.516 138.324C247.836 138.324 246.744 138.096 246.24 137.64C245.928 137.4 245.772 137.064 245.772 136.632C245.772 133.92 245.868 130.368 246.06 125.976C246.252 121.56 246.348 118.128 246.348 115.68C246.348 114.696 247.26 113.904 249.084 113.304C250.908 112.704 252.864 112.404 254.952 112.404C258.864 112.404 262.104 113.508 264.672 115.716C267.264 117.924 268.56 120.792 268.56 124.32C268.56 126.096 268.248 127.74 267.624 129.252C267.024 130.764 266.208 132.072 265.176 133.176C264.144 134.256 262.944 135.18 261.576 135.948C258.84 137.46 255.816 138.216 252.504 138.216ZM266.004 125.184C266.004 122.088 264.948 119.496 262.836 117.408C260.748 115.296 258.036 114.24 254.7 114.24C253.068 114.24 251.124 114.78 248.868 115.86C248.868 117.804 248.772 120.72 248.58 124.608C248.388 128.472 248.292 131.148 248.292 132.636C248.292 134.1 248.304 135.144 248.328 135.768C249.672 136.032 251.112 136.164 252.648 136.164C256.536 136.164 259.728 135.216 262.224 133.32C264.744 131.424 266.004 128.712 266.004 125.184ZM293.866 137.82C293.482 138.348 292.93 138.612 292.21 138.612C292.018 138.612 291.826 138.588 291.634 138.54C291.106 137.34 290.71 135.648 290.446 133.464C290.206 131.256 290.026 129.804 289.906 129.108C287.29 129.012 284.674 128.964 282.058 128.964C279.442 128.964 277.102 129.072 275.038 129.288C274.822 130.272 274.582 131.748 274.318 133.716C274.078 135.66 273.898 136.968 273.778 137.64C272.914 138.336 272.134 138.432 271.438 137.928C271.51 137.352 271.618 136.44 271.762 135.192C271.906 133.944 272.026 132.888 272.122 132.024C272.242 131.136 272.41 130.02 272.626 128.676C272.842 127.332 273.046 126.18 273.238 125.22C273.454 124.236 273.742 123.144 274.102 121.944C274.462 120.72 274.834 119.676 275.218 118.812C275.602 117.948 276.07 117.072 276.622 116.184C277.198 115.296 277.81 114.576 278.458 114.024C279.946 112.8 281.566 112.188 283.318 112.188C285.07 112.188 286.522 112.86 287.674 114.204C288.85 115.548 289.738 117.312 290.338 119.496C290.938 121.68 291.418 123.876 291.778 126.084C292.138 128.292 292.486 130.548 292.822 132.852C293.158 135.156 293.506 136.812 293.866 137.82ZM287.17 117.84C286.714 116.664 286.126 115.752 285.406 115.104C284.686 114.432 283.798 114.096 282.742 114.096C281.686 114.096 280.666 114.612 279.682 115.644C278.698 116.676 277.918 117.96 277.342 119.496C276.31 122.352 275.662 124.992 275.398 127.416C277.798 127.152 280.21 127.02 282.634 127.02C285.058 127.02 287.398 127.092 289.654 127.236C289.558 126.876 289.378 126.024 289.114 124.68C288.85 123.336 288.574 122.16 288.286 121.152C288.022 120.12 287.65 119.016 287.17 117.84ZM317.386 135.192L317.71 112.872C318.094 112.488 318.502 112.296 318.934 112.296C319.366 112.296 319.702 112.368 319.942 112.512C320.11 115.704 320.194 118.332 320.194 120.396L319.906 137.064C319.906 137.544 319.906 138 319.906 138.432C319.09 138.96 318.418 139.224 317.89 139.224L317.458 139.152C317.218 139.032 317.026 138.936 316.882 138.864C316.762 138.816 316.594 138.648 316.378 138.36C316.162 138.096 316.018 137.904 315.946 137.784C315.874 137.664 315.706 137.4 315.442 136.992C315.202 136.584 315.034 136.308 314.938 136.164C314.842 135.996 314.158 134.904 312.886 132.888C311.638 130.848 310.846 129.576 310.51 129.072C310.174 128.568 309.454 127.5 308.35 125.868C307.27 124.236 306.418 123.024 305.794 122.232C303.946 119.88 302.242 117.984 300.682 116.544C300.802 119.688 300.862 123.048 300.862 126.624C300.862 130.2 300.79 134.016 300.646 138.072C300.358 138.504 299.554 138.72 298.234 138.72C298.234 125.16 298.186 116.808 298.09 113.664C298.546 113.232 298.99 113.016 299.422 113.016C299.854 113.016 300.274 113.136 300.682 113.376C301.306 113.76 302.002 114.336 302.77 115.104C305.314 117.648 307.714 120.54 309.97 123.78C312.25 127.02 314.722 130.824 317.386 135.192ZM338.275 127.02C336.931 127.02 336.259 126.792 336.259 126.336C336.259 125.808 337.087 125.4 338.743 125.112C340.399 124.8 342.079 124.644 343.783 124.644C345.487 124.644 346.723 124.692 347.491 124.788C348.259 124.884 348.751 125.016 348.967 125.184C349.207 125.352 349.327 125.592 349.327 125.904C349.327 130.224 348.295 133.404 346.231 135.444C344.167 137.484 341.191 138.504 337.303 138.504C333.439 138.504 330.403 137.556 328.195 135.66C326.011 133.764 324.919 131.148 324.919 127.812C324.919 123.204 326.299 119.472 329.059 116.616C331.819 113.736 335.251 112.296 339.355 112.296C341.155 112.296 342.859 112.668 344.467 113.412C346.075 114.156 347.059 115.116 347.419 116.292C347.083 116.58 346.759 116.724 346.447 116.724C346.135 116.724 345.751 116.652 345.295 116.508C344.863 116.364 344.419 116.088 343.963 115.68C343.507 115.272 342.811 114.864 341.875 114.456C340.939 114.024 339.955 113.808 338.923 113.808C335.731 113.808 332.959 115.176 330.607 117.912C328.279 120.624 327.115 123.828 327.115 127.524C327.115 130.452 328.183 132.744 330.319 134.4C332.479 136.056 334.999 136.884 337.879 136.884C341.167 136.884 343.495 135.864 344.863 133.824C346.159 131.952 346.807 129.564 346.807 126.66C346.615 126.492 346.363 126.408 346.051 126.408C345.739 126.408 345.367 126.42 344.935 126.444C343.831 126.492 342.559 126.6 341.119 126.768C339.679 126.936 338.731 127.02 338.275 127.02Z" fill="black"/>
<defs>
<clipPath id="clip0">
<rect width="80" height="80" fill="white" transform="matrix(-1 0 0 1 80 14)"/>
</clipPath>
</defs>
</svg>
