<svg width="115" height="115" viewBox="0 0 115 115" fill="none" xmlns="http://www.w3.org/2000/svg">
<rect width="115" height="115" rx="4" fill="#116DFF"/>
<path d="M52.3806 15.8071C52.556 15.4045 52.9735 15.1634 53.4099 15.2128L81.5245 18.3959C82.483 18.5045 82.7474 19.7733 81.912 20.2556L62.2044 31.6338L42.4967 43.012C41.6613 43.4944 40.6947 42.631 41.0799 41.7466L52.3806 15.8071Z" fill="white"/>
<path d="M52.3806 15.8071C52.556 15.4045 52.9735 15.1634 53.4099 15.2128L81.5245 18.3959C82.483 18.5045 82.7474 19.7733 81.912 20.2556L62.2044 31.6338L42.4967 43.012C41.6613 43.4944 40.6947 42.631 41.0799 41.7466L52.3806 15.8071Z" fill="white"/>
<path d="M52.3806 15.8071C52.556 15.4045 52.9735 15.1634 53.4099 15.2128L81.5245 18.3959C82.483 18.5045 82.7474 19.7733 81.912 20.2556L62.2044 31.6338L42.4967 43.012C41.6613 43.4944 40.6947 42.631 41.0799 41.7466L52.3806 15.8071Z" fill="white"/>
<path d="M52.3806 15.8071C52.556 15.4045 52.9735 15.1634 53.4099 15.2128L81.5245 18.3959C82.483 18.5045 82.7474 19.7733 81.912 20.2556L62.2044 31.6338L42.4967 43.012C41.6613 43.4944 40.6947 42.631 41.0799 41.7466L52.3806 15.8071Z" fill="white"/>
<path d="M67.952 77.688C59.568 79.096 52.88 80.376 47.888 81.528C46.352 83.96 45.36 85.592 44.912 86.424C43.568 88.792 42.352 90.776 41.264 92.376C40.24 93.912 39.12 95.288 37.904 96.504C36.56 97.848 35.44 98.808 34.544 99.384C33.712 99.96 32.72 100.248 31.568 100.248C29.648 100.248 27.952 99.832 26.48 99C25.072 98.104 24.368 97.208 24.368 96.312C24.496 96.184 25.2 94.776 26.48 92.088C27.76 89.336 30.128 85.912 33.584 81.816C33.584 81.304 33.424 80.664 33.104 79.896C32.784 79.128 32.624 78.68 32.624 78.552C32.624 76.696 35.536 74.456 41.36 71.832C44.624 66.968 48.048 62.168 51.632 57.432C55.28 52.696 59.728 47.096 64.976 40.632C66.256 39.032 67.888 37.72 69.872 36.696C71.856 35.672 73.84 35.16 75.824 35.16C77.872 35.16 79.408 35.352 80.432 35.736C81.456 36.12 82.096 36.632 82.352 37.272C82.672 37.912 82.832 38.808 82.832 39.96C82.576 41.88 82.416 43.32 82.352 44.28C81.392 52.024 80.656 58.68 80.144 64.248C79.696 69.752 79.472 75.256 79.472 80.76C79.472 85.816 79.696 90.456 80.144 94.68C79.952 96.216 79.28 97.624 78.128 98.904C76.976 100.12 75.632 100.728 74.096 100.728C71.152 100.728 69.2 99.992 68.24 98.52C67.344 97.048 66.896 94.552 66.896 91.032C66.896 88.472 67.248 84.024 67.952 77.688ZM55.472 70.488C56.624 70.232 58.384 69.944 60.752 69.624L68.432 68.472C69.008 59.576 69.68 53.176 70.448 49.272C67.952 52.216 62.96 59.288 55.472 70.488Z" fill="white"/>
</svg>
