<svg width="213" height="221" viewBox="0 0 213 221" fill="none" xmlns="http://www.w3.org/2000/svg">
<path d="M20.4145 200.336L0.606717 87.8776C0.415456 86.7922 0.29623 85.6953 0.249821 84.5941C-0.044551 71.8443 9.11039 60.831 21.6993 58.7905L59.9229 52.0452L58.8879 200.336H20.4145Z" fill="#D40B6F"/>
<path d="M167.527 195.411C166.864 198.162 164.638 200.262 161.853 200.764L49.3588 220.607C42.2682 221.845 34.9881 219.97 29.3782 215.46C23.7684 210.95 20.3723 204.243 20.0576 197.052C19.7765 184.862 28.169 174.181 40.0795 171.57L71.5934 180.421H71.5577L43.1845 185.453C40.02 186.009 37.2716 187.955 35.6955 190.755C34.1193 193.554 33.8814 196.913 35.0472 199.907C37.0659 204.73 42.1929 207.472 47.3245 206.474L133.301 191.306L167.527 195.411Z" fill="#AA0959"/>
<path d="M71.5577 180.421L43.1845 185.453C40.02 186.009 37.2716 187.955 35.6955 190.755C34.1193 193.554 33.8814 196.913 35.0472 199.907C37.0659 204.73 42.1929 207.472 47.3245 206.474L133.301 191.306L71.5577 180.421Z" fill="#F9EAB0"/>
<path d="M45.7756 132.386L65.6083 19.9138C66.3182 16.0477 70.002 13.4689 73.8776 14.1249L185.504 33.8078C198.102 35.8498 207.264 46.8702 206.971 59.6292C206.923 60.7255 206.804 61.8175 206.615 62.8984L186.782 175.371L45.7756 132.386Z" fill="#E40BE4"/>
<path d="M162.167 51.3813C161.957 51.3812 161.748 51.3633 161.542 51.3278L80.7014 37.0734C78.8771 36.6234 77.7141 34.8361 78.0417 32.9858C78.3694 31.1356 80.0755 29.8564 81.9434 30.0603L162.781 44.2969C164.604 44.6163 165.88 46.2765 165.72 48.1205C165.561 49.9645 164.018 51.3803 162.167 51.3813Z" fill="#3F5C6C"/>
<path d="M145.007 66.4638C144.798 66.4641 144.588 66.445 144.382 66.4067L91.6617 57.1238C89.7649 56.7391 88.5204 54.9127 88.8563 53.0066C89.1922 51.1006 90.9861 49.8096 92.9002 50.0965L145.624 59.3758C147.458 59.6857 148.747 61.3519 148.585 63.2046C148.424 65.0574 146.867 66.4757 145.007 66.4638V66.4638Z" fill="#3F5C6C"/>
<path d="M152.458 82.4043L78.6343 69.3633C76.6927 69.0204 74.8408 70.3163 74.4978 72.2578L68.2878 107.412C67.9449 109.354 69.2407 111.206 71.1823 111.549L145.006 124.59C146.948 124.932 148.8 123.637 149.143 121.695L155.353 86.5408C155.696 84.5993 154.4 82.7473 152.458 82.4043Z" fill="#ECF0F1"/>
<path d="M206.964 59.6114C206.922 60.7128 206.803 61.81 206.607 62.8948L186.764 175.353L159.247 166.966L175.201 76.5283L178.984 55.1859L182.838 33.3438L185.515 33.8078C198.098 35.8583 207.248 46.8654 206.964 59.6114Z" fill="#C90AC9"/>
<path d="M165.671 146.266L54.0341 126.601C53.6215 126.53 53.2037 126.494 52.785 126.494C49.0859 126.503 46.0068 129.337 45.6912 133.023C45.3756 136.708 47.9279 140.024 51.5715 140.663L164.03 160.47C167.191 161.043 169.931 162.999 171.499 165.804C173.067 168.608 173.299 171.967 172.131 174.96C170.123 179.772 165.004 182.503 159.89 181.492L47.8598 161.755C47.4472 161.684 47.0294 161.648 46.6107 161.648C42.9047 161.639 39.8082 164.467 39.4828 168.159C39.1573 171.851 41.7112 175.177 45.3616 175.817L157.855 195.625C164.941 196.867 172.218 194.998 177.828 190.495C183.437 185.992 186.836 179.291 187.157 172.105C187.437 159.341 178.273 148.32 165.671 146.266Z" fill="#970797"/>
<path d="M172.131 174.96C170.123 179.772 165.004 182.503 159.89 181.492L47.8598 161.755L51.5715 140.663L164.03 160.47C167.191 161.043 169.931 162.999 171.499 165.804C173.067 168.608 173.299 171.967 172.131 174.96V174.96Z" fill="#F9EAB0"/>
<path d="M204.131 54.0575L213 46.4423L199.423 41.9085C193.532 39.9438 187.079 40.6384 181.739 43.8117L184.15 58.3068C191.098 60.3711 198.619 58.7721 204.131 54.0575Z" fill="#305C1E"/>
<path d="M180.238 39.0604C192.187 32.4492 199.605 19.8533 199.603 6.17735V0.808701C182.682 0.813943 167.861 12.1725 163.43 28.5328" fill="#305C1E"/>
<path d="M162.09 113.55C162.09 134.305 178.885 151.131 199.603 151.131V145.762C199.596 126.921 185.653 111.001 167.007 108.541" fill="#305C1E"/>
<path d="M171.256 100.553L179.938 106.955C185.548 111.092 192.815 112.238 199.423 110.031L213 105.497L204.131 97.8822C198.055 92.663 189.582 91.271 182.16 94.2712L172.422 98.2047" fill="#305C1E"/>
<path d="M175.265 23.9204L190.503 6.49978C191.479 5.38437 193.171 5.27296 194.284 6.25075C195.398 7.22722 195.509 8.92328 194.533 10.0374L179.295 27.458C178.32 28.5734 176.627 28.6848 175.513 27.7083C174.401 26.7305 174.29 25.0358 175.265 23.9204Z" fill="#294F1A"/>
<path d="M176.95 125.617C178.065 124.64 179.759 124.753 180.734 125.87L195.972 143.314C196.948 144.429 196.834 146.127 195.721 147.103C194.606 148.081 192.912 147.968 191.937 146.852L176.699 129.407C175.723 128.291 175.835 126.595 176.95 125.617V125.617Z" fill="#294F1A"/>
<path d="M185.776 68.0191L181.473 42.1602C181.077 39.7734 179.63 37.692 177.532 36.4914L164.486 29.0243C162.934 28.1356 161.13 27.7909 159.359 28.0439L143.334 30.3363L132.616 27.652L122.565 19.599C120.608 18.0288 117.824 18.0288 115.866 19.599L107.56 26.2613C106.45 27.1513 105.033 27.5642 103.622 27.4082L87.6626 25.6309C86.1463 25.4605 84.6312 25.9454 83.4929 26.9625C82.356 27.981 81.7058 29.4372 81.7058 30.9641V33.0206L68.4183 50.1332C65.1004 54.4048 64.6516 60.2492 67.2774 64.9809L67.8531 66.0216L62.7624 74.8505C61.403 76.5518 60.7907 78.7328 61.0641 80.8955C61.3376 83.0568 62.4745 85.015 64.2146 86.3231L79.0263 97.4445C79.0263 97.4445 70.9879 121.603 97.7826 132.341C124.577 143.078 135.295 124.288 135.295 124.288L135.249 124.25C135.454 124.25 135.66 124.25 135.86 124.208L151.402 121.982C153.127 121.738 154.725 120.94 155.956 119.705L166.538 109.106C167.148 108.494 167.657 107.787 168.044 107.014L185.047 72.9447C185.802 71.4204 186.057 69.6968 185.776 68.0191Z" fill="#BD0000"/>
<path d="M146.943 44.9441L137.946 39.5388C136.696 38.7864 135.268 38.3906 133.81 38.3893H126.799C124.665 38.3827 122.617 39.2321 121.113 40.7485L117.324 44.5444C116.509 45.3609 116.306 46.6087 116.82 47.6416L118.119 50.2433L114.754 51.3653C113.061 51.9354 111.604 53.0508 110.61 54.5385L109.081 56.8335C106.719 60.3921 107.541 65.1814 110.958 67.7426L115.703 71.3077C117.532 72.6813 119.859 73.2108 122.102 72.7626L142.919 68.5906C146.187 67.9221 148.71 65.3073 149.263 62.0108L150.737 53.1531C151.283 49.8947 149.776 46.6349 146.943 44.9441ZM145.451 52.2919L143.98 61.1497C143.792 62.2481 142.95 63.1184 141.86 63.3399L121.043 67.5119C120.293 67.6613 119.514 67.4857 118.899 67.0282L114.154 63.4605C113.016 62.6072 112.741 61.0095 113.53 59.8233L115.058 57.5308C115.389 57.0354 115.876 56.6631 116.439 56.4731L119.339 55.5045C119.99 59.5152 124.382 62.5482 129.936 62.5482C135.947 62.5482 140.654 59.0106 140.654 54.4952C140.654 49.9799 135.947 46.4423 129.936 46.4423C127.542 46.4147 125.187 47.0491 123.13 48.2786L122.479 46.9705L124.891 44.5548C125.395 44.045 126.082 43.7579 126.799 43.7579H133.81C134.297 43.7579 134.773 43.8903 135.188 44.142L144.185 49.5486C145.13 50.1149 145.631 51.2041 145.451 52.2919ZM124.577 54.4952C124.577 53.3995 126.664 51.8109 129.936 51.8109C133.208 51.8109 135.295 53.3995 135.295 54.4952C135.295 55.591 133.208 57.1796 129.936 57.1796C126.664 57.1796 124.577 55.591 124.577 54.4952Z" fill="#A30000"/>
<path d="M144.914 79.459C141.337 79.4616 137.969 77.7695 135.832 74.8964C135.832 74.8964 143.267 74.203 145.335 74.0693C147.371 73.9474 149.201 72.7835 150.178 70.9879L150.239 70.8751C153.909 64.243 156.159 56.9161 156.843 49.3625C157.02 47.441 157.176 46.0268 157.176 46.0268C159.056 50.2879 160.666 54.663 161.998 59.126C162.195 59.8102 162.111 60.5455 161.765 61.168L154.855 73.5949C152.99 76.9725 149.539 79.168 145.694 79.4249C145.437 79.4432 145.174 79.459 144.914 79.459V79.459Z" fill="#A30000"/>
<path d="M150.091 85.8133C142.969 94.8296 130.409 97.4183 120.312 91.95C110.992 86.8789 102.228 80.8391 94.1677 73.933C79.0721 60.9701 80.7363 52.1897 81.4454 48.4319C81.5736 47.85 81.66 47.2615 81.7058 46.6677C83.5165 43.5928 85.7551 40.7905 88.3534 38.346C89.2889 37.3381 90.8314 37.1939 91.9356 38.0131L95.8423 40.9478C93.524 43.0135 92.2653 46.0215 92.4236 49.1266C92.4236 60.6267 100.647 71.7441 100.998 72.2121C101.135 72.3929 101.292 72.5555 101.467 72.6983L114.864 83.4356C115.012 83.5536 115.172 83.6558 115.342 83.741C115.802 83.9691 126.72 89.3915 135.295 89.3915C145.308 89.3915 148.481 77.1429 148.613 76.6226C148.613 76.6226 141.078 84.0228 135.295 84.0228C128.629 84.0228 119.572 79.822 117.981 79.054L105.1 68.7217C103.945 67.0924 97.7826 57.9503 97.7826 49.1266C97.6426 47.5669 98.2379 46.0294 99.3905 44.9717C101.073 43.8576 103.072 43.3267 105.084 43.4578C103.813 46.0582 103.148 48.9143 103.142 51.8109C106.017 51.786 108.559 49.9327 109.467 47.1999C111.338 42.4538 113.68 37.9096 116.456 33.6327C113.51 34.5594 110.833 36.1925 108.659 38.3893C106.251 37.9908 103.794 38.0052 101.392 38.4325L95.1463 33.7376C91.8637 31.2695 87.2518 31.6758 84.4493 34.68C76.9735 42.733 76.3468 44.9769 76.3468 46.4396C76.3115 46.7765 76.2552 47.1107 76.1807 47.441C75.3773 51.7061 73.233 63.0371 90.6796 78.0211C106.189 91.3379 126.893 102.91 134.577 102.91C135.16 102.928 135.743 102.838 136.292 102.641C151.201 96.6397 151.372 84.5353 151.372 84.0228C150.976 84.6415 150.549 85.2392 150.091 85.8133V85.8133Z" fill="#A30000"/>
<path d="M156.409 93.6591C156.409 93.6591 162.414 82.1328 162.543 81.484L164.769 70.402C164.839 70.073 164.929 69.7492 165.038 69.4307L169.427 56.2398C169.699 55.4232 169.566 54.5241 169.065 53.8242C169.065 53.8242 157.516 38.3893 156.654 38.3893L148.693 33.0206H156.654C159.248 33.0246 161.683 34.2789 163.194 36.3918L173.403 50.7099C174.889 52.811 175.288 55.4966 174.475 57.9398L170.097 71.1386C170.062 71.2421 170.033 71.3496 170.013 71.4571L167.797 82.5444C167.41 84.4855 166.321 86.217 164.741 87.4058L156.409 93.6591Z" fill="#A30000"/>
<path d="M124.577 113.55C123.455 113.55 120.044 113.55 89.527 103.707C81.834 101.412 77.014 93.7797 78.2386 85.8316C78.7188 83.3334 78.3067 80.7461 77.0755 78.5205L71.7912 68.9694L77.6329 73.0299C81.7659 75.7733 84.0921 80.5416 83.7127 85.4935C83.6774 85.8237 83.6329 86.1514 83.5767 86.4791C82.7066 91.7599 85.8283 96.8809 90.9151 98.5179C104.825 103.281 119.065 107.018 133.518 109.701C130.979 111.835 127.87 113.173 124.577 113.55V113.55Z" fill="#A30000"/>
</svg>
