<svg width="493" height="255" viewBox="0 0 493 255" fill="none" xmlns="http://www.w3.org/2000/svg">
<path d="M20.4145 210.336L0.606717 97.8776C0.415456 96.7922 0.29623 95.6953 0.249821 94.5941C-0.044551 81.8443 9.11039 70.831 21.6993 68.7905L59.9229 62.0452L58.8879 210.336H20.4145Z" fill="#D40B6F"/>
<path d="M167.527 205.411C166.864 208.162 164.638 210.262 161.853 210.764L49.3588 230.607C42.2682 231.845 34.9881 229.97 29.3782 225.46C23.7684 220.95 20.3723 214.243 20.0576 207.052C19.7765 194.862 28.169 184.181 40.0795 181.57L71.5934 190.421H71.5577L43.1845 195.453C40.02 196.009 37.2716 197.955 35.6955 200.755C34.1193 203.554 33.8814 206.913 35.0472 209.907C37.0659 214.73 42.1929 217.472 47.3245 216.474L133.301 201.306L167.527 205.411Z" fill="#AA0959"/>
<path d="M71.5577 190.421L43.1845 195.453C40.02 196.009 37.2716 197.955 35.6955 200.755C34.1193 203.554 33.8814 206.913 35.0472 209.907C37.0659 214.73 42.1929 217.472 47.3245 216.474L133.301 201.306L71.5577 190.421Z" fill="#F9EAB0"/>
<path d="M45.7756 142.386L65.6083 29.9138C66.3182 26.0477 70.002 23.4689 73.8776 24.1249L185.504 43.8078C198.102 45.8498 207.264 56.8702 206.971 69.6292C206.923 70.7255 206.804 71.8175 206.615 72.8984L186.782 185.371L45.7756 142.386Z" fill="#E40BE4"/>
<path d="M162.167 61.3813C161.957 61.3812 161.748 61.3633 161.542 61.3278L80.7014 47.0734C78.8771 46.6234 77.7141 44.8361 78.0417 42.9858C78.3694 41.1356 80.0755 39.8564 81.9434 40.0603L162.781 54.2969C164.604 54.6163 165.88 56.2765 165.72 58.1205C165.561 59.9645 164.018 61.3803 162.167 61.3813Z" fill="#3F5C6C"/>
<path d="M145.007 76.4638C144.798 76.4641 144.588 76.445 144.382 76.4067L91.6617 67.1238C89.7649 66.7391 88.5204 64.9127 88.8563 63.0066C89.1922 61.1006 90.9861 59.8096 92.9002 60.0965L145.624 69.3758C147.458 69.6857 148.747 71.3519 148.585 73.2046C148.424 75.0574 146.867 76.4757 145.007 76.4638V76.4638Z" fill="#3F5C6C"/>
<path d="M152.458 92.4043L78.6343 79.3633C76.6927 79.0204 74.8408 80.3163 74.4978 82.2578L68.2878 117.412C67.9449 119.354 69.2407 121.206 71.1823 121.549L145.006 134.59C146.948 134.932 148.8 133.637 149.143 131.695L155.353 96.5408C155.696 94.5993 154.4 92.7473 152.458 92.4043Z" fill="#ECF0F1"/>
<path d="M206.964 69.6114C206.922 70.7128 206.803 71.81 206.607 72.8948L186.764 185.353L159.247 176.966L175.201 86.5283L178.984 65.1859L182.838 43.3438L185.515 43.8078C198.098 45.8583 207.248 56.8654 206.964 69.6114Z" fill="#C90AC9"/>
<path d="M165.671 156.266L54.0341 136.601C53.6215 136.53 53.2037 136.494 52.785 136.494C49.0859 136.503 46.0068 139.337 45.6912 143.023C45.3756 146.708 47.9279 150.024 51.5715 150.663L164.03 170.47C167.191 171.043 169.931 172.999 171.499 175.804C173.067 178.608 173.299 181.967 172.131 184.96C170.123 189.772 165.004 192.503 159.89 191.492L47.8598 171.755C47.4472 171.684 47.0294 171.648 46.6107 171.648C42.9047 171.639 39.8082 174.467 39.4828 178.159C39.1573 181.851 41.7112 185.177 45.3616 185.817L157.855 205.625C164.941 206.867 172.218 204.998 177.828 200.495C183.437 195.992 186.836 189.291 187.157 182.105C187.437 169.341 178.273 158.32 165.671 156.266Z" fill="#970797"/>
<path d="M172.131 184.96C170.123 189.772 165.004 192.503 159.89 191.492L47.8598 171.755L51.5715 150.663L164.03 170.47C167.191 171.043 169.931 172.999 171.499 175.804C173.067 178.608 173.299 181.967 172.131 184.96V184.96Z" fill="#F9EAB0"/>
<path d="M204.131 64.0575L213 56.4423L199.423 51.9085C193.532 49.9438 187.079 50.6384 181.739 53.8117L184.15 68.3068C191.098 70.3711 198.619 68.7721 204.131 64.0575Z" fill="#305C1E"/>
<path d="M180.238 49.0604C192.187 42.4492 199.605 29.8533 199.603 16.1774V10.8087C182.682 10.8139 167.861 22.1725 163.43 38.5328" fill="#305C1E"/>
<path d="M162.09 123.55C162.09 144.305 178.885 161.131 199.603 161.131V155.762C199.596 136.921 185.653 121.001 167.007 118.541" fill="#305C1E"/>
<path d="M171.256 110.553L179.938 116.955C185.548 121.092 192.815 122.238 199.423 120.031L213 115.497L204.131 107.882C198.055 102.663 189.582 101.271 182.16 104.271L172.422 108.205" fill="#305C1E"/>
<path d="M175.265 33.9204L190.503 16.4998C191.479 15.3844 193.171 15.273 194.284 16.2507C195.398 17.2272 195.509 18.9233 194.533 20.0374L179.295 37.458C178.32 38.5734 176.627 38.6848 175.513 37.7083C174.401 36.7305 174.29 35.0358 175.265 33.9204Z" fill="#294F1A"/>
<path d="M176.95 135.617C178.065 134.64 179.759 134.753 180.734 135.87L195.972 153.314C196.948 154.429 196.834 156.127 195.721 157.103C194.606 158.081 192.912 157.968 191.937 156.852L176.699 139.407C175.723 138.291 175.835 136.595 176.95 135.617V135.617Z" fill="#294F1A"/>
<path d="M185.776 78.0191L181.473 52.1602C181.077 49.7734 179.63 47.692 177.532 46.4914L164.486 39.0243C162.934 38.1356 161.13 37.7909 159.359 38.0439L143.334 40.3363L132.616 37.652L122.565 29.599C120.608 28.0288 117.824 28.0288 115.866 29.599L107.56 36.2613C106.45 37.1513 105.033 37.5642 103.622 37.4082L87.6626 35.6309C86.1463 35.4605 84.6312 35.9454 83.4929 36.9625C82.356 37.981 81.7058 39.4372 81.7058 40.9641V43.0206L68.4183 60.1332C65.1004 64.4048 64.6516 70.2492 67.2774 74.9809L67.8531 76.0216L62.7624 84.8505C61.403 86.5518 60.7907 88.7328 61.0641 90.8955C61.3376 93.0568 62.4745 95.015 64.2146 96.3231L79.0263 107.444C79.0263 107.444 70.9879 131.603 97.7826 142.341C124.577 153.078 135.295 134.288 135.295 134.288L135.249 134.25C135.454 134.25 135.66 134.25 135.86 134.208L151.402 131.982C153.127 131.738 154.725 130.94 155.956 129.705L166.538 119.106C167.148 118.494 167.657 117.787 168.044 117.014L185.047 82.9447C185.802 81.4204 186.057 79.6968 185.776 78.0191Z" fill="#BD0000"/>
<path d="M146.943 54.9441L137.946 49.5388C136.696 48.7864 135.268 48.3906 133.81 48.3893H126.799C124.665 48.3827 122.617 49.2321 121.113 50.7485L117.324 54.5444C116.509 55.3609 116.306 56.6087 116.82 57.6416L118.119 60.2433L114.754 61.3653C113.061 61.9354 111.604 63.0508 110.61 64.5385L109.081 66.8335C106.719 70.3921 107.541 75.1814 110.958 77.7426L115.703 81.3077C117.532 82.6813 119.859 83.2108 122.102 82.7626L142.919 78.5906C146.187 77.9221 148.71 75.3073 149.263 72.0108L150.737 63.1531C151.283 59.8947 149.776 56.6349 146.943 54.9441ZM145.451 62.2919L143.98 71.1497C143.792 72.2481 142.95 73.1184 141.86 73.3399L121.043 77.5119C120.293 77.6613 119.514 77.4857 118.899 77.0282L114.154 73.4605C113.016 72.6072 112.741 71.0095 113.53 69.8233L115.058 67.5308C115.389 67.0354 115.876 66.6631 116.439 66.4731L119.339 65.5045C119.99 69.5152 124.382 72.5482 129.936 72.5482C135.947 72.5482 140.654 69.0106 140.654 64.4952C140.654 59.9799 135.947 56.4423 129.936 56.4423C127.542 56.4147 125.187 57.0491 123.13 58.2786L122.479 56.9705L124.891 54.5548C125.395 54.045 126.082 53.7579 126.799 53.7579H133.81C134.297 53.7579 134.773 53.8903 135.188 54.142L144.185 59.5486C145.13 60.1149 145.631 61.2041 145.451 62.2919ZM124.577 64.4952C124.577 63.3995 126.664 61.8109 129.936 61.8109C133.208 61.8109 135.295 63.3995 135.295 64.4952C135.295 65.591 133.208 67.1796 129.936 67.1796C126.664 67.1796 124.577 65.591 124.577 64.4952Z" fill="#A30000"/>
<path d="M144.914 89.459C141.337 89.4616 137.969 87.7695 135.832 84.8964C135.832 84.8964 143.267 84.203 145.335 84.0693C147.371 83.9474 149.201 82.7835 150.178 80.9879L150.239 80.8751C153.909 74.243 156.159 66.9161 156.843 59.3625C157.02 57.441 157.176 56.0268 157.176 56.0268C159.056 60.2879 160.666 64.663 161.998 69.126C162.195 69.8102 162.111 70.5455 161.765 71.168L154.855 83.5949C152.99 86.9725 149.539 89.168 145.694 89.4249C145.437 89.4432 145.174 89.459 144.914 89.459V89.459Z" fill="#A30000"/>
<path d="M150.091 95.8133C142.969 104.83 130.409 107.418 120.312 101.95C110.992 96.8789 102.228 90.8391 94.1677 83.933C79.0721 70.9701 80.7363 62.1897 81.4454 58.4319C81.5736 57.85 81.66 57.2615 81.7058 56.6677C83.5165 53.5928 85.7551 50.7905 88.3534 48.346C89.2889 47.3381 90.8314 47.1939 91.9356 48.0131L95.8423 50.9478C93.524 53.0135 92.2653 56.0215 92.4236 59.1266C92.4236 70.6267 100.647 81.7441 100.998 82.2121C101.135 82.3929 101.292 82.5555 101.467 82.6983L114.864 93.4356C115.012 93.5536 115.172 93.6558 115.342 93.741C115.802 93.9691 126.72 99.3915 135.295 99.3915C145.308 99.3915 148.481 87.1429 148.613 86.6226C148.613 86.6226 141.078 94.0228 135.295 94.0228C128.629 94.0228 119.572 89.822 117.981 89.054L105.1 78.7217C103.945 77.0924 97.7826 67.9503 97.7826 59.1266C97.6426 57.5669 98.2379 56.0294 99.3905 54.9717C101.073 53.8576 103.072 53.3267 105.084 53.4578C103.813 56.0582 103.148 58.9143 103.142 61.8109C106.017 61.786 108.559 59.9327 109.467 57.1999C111.338 52.4538 113.68 47.9096 116.456 43.6327C113.51 44.5594 110.833 46.1925 108.659 48.3893C106.251 47.9908 103.794 48.0052 101.392 48.4325L95.1463 43.7376C91.8637 41.2695 87.2518 41.6758 84.4493 44.68C76.9735 52.733 76.3468 54.9769 76.3468 56.4396C76.3115 56.7765 76.2552 57.1107 76.1807 57.441C75.3773 61.7061 73.233 73.0371 90.6796 88.0211C106.189 101.338 126.893 112.91 134.577 112.91C135.16 112.928 135.743 112.838 136.292 112.641C151.201 106.64 151.372 94.5353 151.372 94.0228C150.976 94.6415 150.549 95.2392 150.091 95.8133V95.8133Z" fill="#A30000"/>
<path d="M156.409 103.659C156.409 103.659 162.414 92.1328 162.543 91.484L164.769 80.402C164.839 80.073 164.929 79.7492 165.038 79.4307L169.427 66.2398C169.699 65.4232 169.566 64.5241 169.065 63.8242C169.065 63.8242 157.516 48.3893 156.654 48.3893L148.693 43.0206H156.654C159.248 43.0246 161.683 44.2789 163.194 46.3918L173.403 60.7099C174.889 62.811 175.288 65.4966 174.475 67.9398L170.097 81.1386C170.062 81.2421 170.033 81.3496 170.013 81.4571L167.797 92.5444C167.41 94.4855 166.321 96.217 164.741 97.4058L156.409 103.659Z" fill="#A30000"/>
<path d="M124.577 123.55C123.455 123.55 120.044 123.55 89.527 113.707C81.834 111.412 77.014 103.78 78.2386 95.8316C78.7188 93.3334 78.3067 90.7461 77.0755 88.5205L71.7912 78.9694L77.6329 83.0299C81.7659 85.7733 84.0921 90.5416 83.7127 95.4935C83.6774 95.8237 83.6329 96.1514 83.5767 96.4791C82.7066 101.76 85.8283 106.881 90.9151 108.518C104.825 113.281 119.065 117.018 133.518 119.701C130.979 121.835 127.87 123.173 124.577 123.55V123.55Z" fill="#A30000"/>
<path d="M303.84 109.416C304.608 109.544 305.504 110.248 306.528 111.528C307.552 112.808 308.064 113.992 308.064 115.08C308.064 115.784 307.52 116.328 306.432 116.712C306.048 116.84 305.408 117.064 304.512 117.384C303.68 117.768 302.912 118.024 302.208 118.152C301.504 118.28 300.704 118.344 299.808 118.344C298.464 118.344 297.44 118.184 296.736 117.864C294.944 117.096 292.608 115.304 289.728 112.488C286.848 109.672 284.064 106.472 281.376 102.888C278.688 99.24 276.704 95.848 275.424 92.712H274.848C273.056 92.712 271.744 92.68 270.912 92.616C268.992 99.72 267.392 105.928 266.112 111.24C265.6 113.48 264.8 115.208 263.712 116.424C262.688 117.64 260.992 118.248 258.624 118.248C256.64 118.248 255.168 117.896 254.208 117.192C253.312 116.552 252.864 115.432 252.864 113.832C252.864 113.128 252.96 112.456 253.152 111.816L264.768 66.984C261.44 67.944 258.912 69.256 257.184 70.92C256.48 70.152 255.904 69.16 255.456 67.944C255.072 66.664 254.88 65.416 254.88 64.2C254.88 63.304 255.136 62.6 255.648 62.088C256.224 61.512 256.992 61 257.952 60.552C258.272 60.36 259.424 59.784 261.408 58.824C263.456 57.864 265.408 57.128 267.264 56.616C267.84 55.336 268.704 54.28 269.856 53.448C271.072 52.616 272.608 52.2 274.464 52.2C275.552 52.2 276.448 52.424 277.152 52.872C277.856 53.256 278.336 53.768 278.592 54.408C280.96 53.64 283.808 53.256 287.136 53.256C291.232 53.256 294.784 54.088 297.792 55.752C300.864 57.352 303.2 59.432 304.8 61.992C306.4 64.552 307.2 67.144 307.2 69.768C307.2 75.592 305.312 80.264 301.536 83.784C297.824 87.24 293.024 89.704 287.136 91.176C288.48 93.48 290.272 96.072 292.512 98.952C294.752 101.832 296.864 104.296 298.848 106.344C300.896 108.328 302.24 109.32 302.88 109.32L303.84 109.416ZM277.536 64.392C275.68 71.816 274.144 78.248 272.928 83.688C273.696 83.752 274.784 83.784 276.192 83.784C279.264 83.784 282.336 83.336 285.408 82.44C288.48 81.48 291.04 80.072 293.088 78.216C295.2 76.36 296.256 74.056 296.256 71.304C296.256 68.808 295.232 66.824 293.184 65.352C291.136 63.816 288.384 63.048 284.928 63.048C283.008 63.048 280.544 63.496 277.536 64.392ZM334.889 119.016C327.273 119.016 321.577 116.552 317.801 111.624C314.025 106.696 312.137 100.008 312.137 91.56C312.137 84.584 313.641 78.12 316.648 72.168C319.657 66.216 323.849 61.48 329.225 57.96C334.601 54.44 340.649 52.68 347.369 52.68C353.897 52.68 359.113 54.92 363.017 59.4C366.985 63.816 368.969 70.44 368.969 79.272C368.969 85.544 367.497 91.784 364.552 97.992C361.673 104.136 357.641 109.192 352.457 113.16C347.273 117.064 341.417 119.016 334.889 119.016ZM336.233 110.376C339.369 110.376 342.441 108.616 345.449 105.096C348.457 101.576 350.889 97.064 352.745 91.56C354.665 86.056 355.625 80.456 355.625 74.76C355.625 70.408 354.889 67.272 353.417 65.352C352.009 63.368 349.481 62.376 345.833 62.376C341.801 62.376 338.217 64.136 335.081 67.656C331.945 71.176 329.513 75.56 327.785 80.808C326.057 86.056 325.193 91.144 325.193 96.072C325.193 98.952 325.705 101.48 326.729 103.656C327.817 105.832 329.193 107.496 330.857 108.648C332.585 109.8 334.377 110.376 336.233 110.376ZM395.219 73.608C395.219 75.592 395.923 77.128 397.331 78.216C398.803 79.24 401.043 80.392 404.051 81.672L407.507 83.112L410.387 84.456C413.843 85.992 416.563 87.4 418.547 88.68C420.595 89.896 422.323 91.592 423.731 93.768C425.139 95.944 425.843 98.728 425.843 102.12C425.843 105.768 424.627 108.936 422.195 111.624C419.827 114.248 416.499 116.232 412.211 117.576C407.923 118.984 402.931 119.688 397.234 119.688C393.011 119.688 389.043 119.016 385.331 117.672C381.683 116.392 378.771 114.76 376.595 112.776C374.483 110.792 373.427 108.84 373.427 106.92C373.427 105.064 374.227 103.56 375.827 102.408C377.427 101.192 379.699 100.36 382.643 99.912C382.963 101.768 384.051 103.432 385.907 104.904C387.763 106.376 389.907 107.56 392.339 108.456C394.835 109.288 397.011 109.704 398.867 109.704C402.259 109.704 405.267 109.032 407.891 107.688C410.579 106.344 411.923 104.488 411.923 102.12C411.923 100.136 410.963 98.504 409.043 97.224C407.187 95.88 404.371 94.44 400.595 92.904L395.507 90.6C391.347 88.552 388.051 86.248 385.619 83.688C383.187 81.128 381.971 77.736 381.971 73.512C381.971 69.736 382.995 66.376 385.043 63.432C387.155 60.424 390.195 58.088 394.163 56.424C398.195 54.696 402.963 53.832 408.467 53.832C412.691 53.832 416.467 54.472 419.795 55.752C423.123 57.032 425.715 58.664 427.571 60.648C429.427 62.632 430.355 64.616 430.355 66.6C430.355 68.392 429.619 69.832 428.147 70.92C426.739 71.944 425.043 72.456 423.059 72.456C422.291 72.456 421.747 72.296 421.427 71.976C421.107 71.592 420.883 71.208 420.755 70.824C420.627 70.376 420.499 70.056 420.371 69.864C419.155 67.816 417.523 66.312 415.475 65.352C413.491 64.328 411.315 63.816 408.947 63.816C404.723 63.816 401.363 64.776 398.867 66.696C396.435 68.616 395.219 70.92 395.219 73.608ZM487.468 52.104C489.772 53.32 490.924 54.856 490.924 56.712C490.924 57.864 490.284 58.952 489.004 59.976C487.788 60.936 486.412 61.608 484.876 61.992L480.844 62.28C478.988 62.408 476.428 62.6 473.164 62.856C469.964 63.048 466.06 63.336 461.452 63.72L457.996 77.736C462.028 77.096 465.356 76.584 467.98 76.2C470.668 75.816 473.644 75.496 476.908 75.24C479.404 76.328 480.652 77.8 480.652 79.656C480.652 80.808 480.076 81.928 478.924 83.016C477.772 84.104 476.46 84.872 474.988 85.32L469.516 85.896C463.692 86.536 459.02 87.176 455.5 87.816C454.476 92.296 452.812 98.792 450.508 107.304C459.148 105.704 467.372 104.584 475.18 103.944C477.676 105.032 478.924 106.504 478.924 108.36C478.924 109.512 478.348 110.632 477.196 111.72C476.044 112.808 474.732 113.576 473.26 114.024C461.1 115.432 452.524 116.616 447.532 117.576C446.956 117.96 445.708 118.152 443.788 118.152C441.996 118.152 440.396 117.32 438.988 115.656C437.644 113.992 436.972 112.264 436.972 110.472C436.972 109.768 437.068 109.096 437.26 108.456L448.204 65.16H447.916C447.852 64.456 447.404 63.592 446.572 62.568C446.508 62.44 446.252 62.056 445.804 61.416C445.356 60.712 445.132 60.04 445.132 59.4C445.26 57.544 446.476 56.072 448.78 54.984C453.58 54.344 460.3 53.736 468.94 53.16C477.58 52.52 483.756 52.168 487.468 52.104Z" fill="#BD0000"/>
<path d="M269 136.144C270.856 136.144 272.264 136.4 273.224 136.912C274.184 137.424 274.664 138.096 274.664 138.928C275.88 138.736 276.936 138.608 277.832 138.544C278.792 138.48 279.848 138.448 281 138.448C285.608 138.448 289.48 139.568 292.616 141.808C295.816 144.048 298.184 146.992 299.72 150.64C301.32 154.288 302.12 158.224 302.12 162.448C302.12 163.536 302.088 164.336 302.024 164.848C301.448 172.528 299.528 179.312 296.264 185.2C293 191.024 288.68 195.536 283.304 198.736C277.992 201.936 272.008 203.536 265.352 203.536C263.496 203.536 261.224 203.312 258.536 202.864C257.512 202.672 256.296 202 254.888 200.848C253.544 199.632 252.392 198.256 251.432 196.72C250.472 195.184 249.992 193.808 249.992 192.592C249.992 191.888 250.088 191.216 250.28 190.576L260.36 151.696C256.712 152.784 253.64 154.192 251.144 155.92C250.376 155.152 249.8 154.192 249.416 153.04C249.032 151.888 248.84 150.704 248.84 149.488C248.84 148.08 249.416 146.832 250.568 145.744C253.576 143.824 257.736 142.192 263.048 140.848C264.264 137.712 266.248 136.144 269 136.144ZM262.28 192.88C263.816 193.264 265.48 193.456 267.272 193.456C271.752 193.456 275.592 192.24 278.792 189.808C281.992 187.312 284.488 184.176 286.28 180.4C288.136 176.624 289.352 172.72 289.928 168.688C290.184 167.088 290.312 165.296 290.312 163.312C290.312 158.832 289.32 155.312 287.336 152.752C285.352 150.128 282.28 148.816 278.12 148.816C276.328 148.816 274.696 148.944 273.224 149.2C272.072 154.192 269.64 163.952 265.928 178.48C263.944 186.288 262.728 191.088 262.28 192.88ZM344.327 180.688C335.943 182.096 329.255 183.376 324.263 184.528C322.727 186.96 321.735 188.592 321.287 189.424C319.943 191.792 318.727 193.776 317.639 195.376C316.615 196.912 315.495 198.288 314.279 199.504C312.935 200.848 311.815 201.808 310.919 202.384C310.087 202.96 309.095 203.248 307.943 203.248C306.023 203.248 304.327 202.832 302.855 202C301.447 201.104 300.743 200.208 300.743 199.312C300.871 199.184 301.575 197.776 302.855 195.088C304.135 192.336 306.503 188.912 309.959 184.816C309.959 184.304 309.799 183.664 309.479 182.896C309.159 182.128 308.999 181.68 308.999 181.552C308.999 179.696 311.911 177.456 317.735 174.832C320.999 169.968 324.423 165.168 328.007 160.432C331.655 155.696 336.103 150.096 341.351 143.632C342.631 142.032 344.263 140.72 346.247 139.696C348.231 138.672 350.215 138.16 352.199 138.16C354.247 138.16 355.783 138.352 356.807 138.736C357.831 139.12 358.471 139.632 358.727 140.272C359.047 140.912 359.207 141.808 359.207 142.96C358.951 144.88 358.791 146.32 358.727 147.28C357.767 155.024 357.031 161.68 356.519 167.248C356.071 172.752 355.847 178.256 355.847 183.76C355.847 188.816 356.071 193.456 356.519 197.68C356.327 199.216 355.655 200.624 354.503 201.904C353.351 203.12 352.007 203.728 350.471 203.728C347.527 203.728 345.575 202.992 344.615 201.52C343.719 200.048 343.271 197.552 343.271 194.032C343.271 191.472 343.623 187.024 344.327 180.688ZM331.847 173.488C332.999 173.232 334.759 172.944 337.127 172.624L344.807 171.472C345.383 162.576 346.055 156.176 346.823 152.272C344.327 155.216 339.335 162.288 331.847 173.488ZM422.879 137.584C424.607 137.584 426.463 137.936 428.447 138.64C430.495 139.344 431.615 139.888 431.807 140.272C430.463 145.456 428.703 152.816 426.527 162.352C424.351 171.824 422.879 178.192 422.111 181.456C420.703 187.984 419.391 193.776 418.175 198.832C417.279 202.352 415.871 204.112 413.951 204.112C408.895 204.112 406.015 203.088 405.311 201.04L405.119 201.232L388.511 159.088L381.887 186.256L378.815 198.544C378.367 200.4 377.663 201.648 376.703 202.288C375.807 202.928 374.079 203.248 371.519 203.248C369.535 203.248 368.063 202.896 367.103 202.192C366.207 201.552 365.759 200.432 365.759 198.832C365.759 198.128 365.855 197.456 366.047 196.816L379.199 144.88C379.903 142.064 380.639 140.208 381.407 139.312C382.239 138.352 383.711 137.872 385.823 137.872C387.551 137.872 389.087 138.064 390.431 138.448C391.775 138.832 392.479 139.408 392.543 140.176V140.368L408.863 183.568L418.655 140.656C418.655 138.608 420.063 137.584 422.879 137.584ZM479.339 166.96C482.475 166.96 484.619 167.632 485.771 168.976C486.923 170.256 487.499 172.048 487.499 174.352C487.499 174.992 487.435 175.952 487.307 177.232C486.795 183.44 484.939 188.56 481.739 192.592C478.603 196.56 474.667 199.472 469.931 201.328C465.195 203.12 460.075 204.016 454.571 204.016C449.771 204.016 445.835 202.704 442.763 200.08C439.691 197.456 437.451 194.192 436.043 190.288C434.699 186.32 434.027 182.32 434.027 178.288C434.027 172.144 435.531 166 438.539 159.856C441.547 153.648 445.739 148.56 451.115 144.592C456.491 140.56 462.475 138.544 469.067 138.544C475.659 138.544 480.459 139.952 483.467 142.768C486.539 145.52 488.075 149.072 488.075 153.424C488.075 155.28 487.371 156.752 485.963 157.84C484.555 158.928 482.635 159.472 480.203 159.472C476.939 159.472 475.307 157.136 475.307 152.464C475.307 151.632 474.859 150.8 473.963 149.968C473.067 149.072 471.883 148.624 470.411 148.624C465.739 148.624 461.515 150 457.739 152.752C454.027 155.504 451.115 159.12 449.003 163.6C446.955 168.08 445.931 172.784 445.931 177.712C445.931 179.824 446.379 182.128 447.275 184.624C448.171 187.056 449.419 189.136 451.019 190.864C452.619 192.528 454.443 193.36 456.491 193.36C461.291 193.36 465.611 192.176 469.451 189.808C473.291 187.376 475.499 183.056 476.075 176.848C475.179 176.912 473.195 177.296 470.123 178L463.403 179.344L461.867 179.536C461.291 179.536 460.811 179.184 460.427 178.48C460.107 177.712 459.947 176.784 459.947 175.696C459.947 174.16 460.235 172.816 460.811 171.664C461.387 170.512 462.123 169.776 463.019 169.456C465.771 168.56 468.331 167.92 470.699 167.536C473.131 167.152 476.011 166.96 479.339 166.96Z" fill="#BD0000"/>
</svg>
