<svg width="512" height="512" viewBox="0 0 512 512" fill="none" xmlns="http://www.w3.org/2000/svg">
<path d="M256 0C114.844 0 0 114.844 0 256C0 397.156 114.844 512 256 512C397.156 512 512 397.156 512 256C512 114.844 397.156 0 256 0ZM256 74.667C323.635 74.667 378.667 129.698 378.667 197.334C378.667 264.97 323.635 320 256 320C188.365 320 133.333 264.969 133.333 197.333C133.333 129.697 188.365 74.667 256 74.667ZM256 469.333C186.293 469.333 124.48 435.578 85.527 383.718C128.203 363.184 189.148 341.333 256 341.333C322.857 341.333 383.807 363.187 426.474 383.716C387.521 435.577 325.708 469.333 256 469.333Z" fill="#717172"/>
</svg>
